{
    "asset" : {
        "generator" : "Khronos glTF Blender I/O v1.8.19",
        "version" : "2.0"
    },
    "scene" : 0,
    "scenes" : [
        {
            "name" : "Scene",
            "nodes" : [
                0
            ]
        }
    ],
    "nodes" : [
        {
            "mesh" : 0,
            "name" : "Cube.021",
            "scale" : [
                0.5,
                0.5,
                0.5
            ],
            "translation" : [
                2.3999998569488525,
                2.3999998569488525,
                0
            ]
        }
    ],
    "materials" : [
        {
            "doubleSided" : true,
            "name" : "purple",
            "pbrMetallicRoughness" : {
                "baseColorFactor" : [
                    0.14071381092071533,
                    0.02401726506650448,
                    0.8000000715255737,
                    1
                ],
                "metallicFactor" : 0.6590909361839294,
                "roughnessFactor" : 0
            }
        }
    ],
    "meshes" : [
        {
            "name" : "Cube.021",
            "primitives" : [
                {
                    "attributes" : {
                        "POSITION" : 0,
                        "NORMAL" : 1,
                        "TEXCOORD_0" : 2
                    },
                    "indices" : 3,
                    "material" : 0
                }
            ]
        }
    ],
    "accessors" : [
        {
            "bufferView" : 0,
            "componentType" : 5126,
            "count" : 648,
            "max" : [
                1.0000004768371582,
                1.0000004768371582,
                1
            ],
            "min" : [
                -5.799999713897705,
                -5.799999713897705,
                -5.800000190734863
            ],
            "type" : "VEC3"
        },
        {
            "bufferView" : 1,
            "componentType" : 5126,
            "count" : 648,
            "type" : "VEC3"
        },
        {
            "bufferView" : 2,
            "componentType" : 5126,
            "count" : 648,
            "type" : "VEC2"
        },
        {
            "bufferView" : 3,
            "componentType" : 5123,
            "count" : 972,
            "type" : "SCALAR"
        }
    ],
    "bufferViews" : [
        {
            "buffer" : 0,
            "byteLength" : 7776,
            "byteOffset" : 0
        },
        {
            "buffer" : 0,
            "byteLength" : 7776,
            "byteOffset" : 7776
        },
        {
            "buffer" : 0,
            "byteLength" : 5184,
            "byteOffset" : 15552
        },
        {
            "buffer" : 0,
            "byteLength" : 1944,
            "byteOffset" : 20736
        }
    ],
    "buffers" : [
        {
            "byteLength" : 22680,
            "uri" : "data:application/octet-stream;base64,"
        }
    ]
}
